# xmcd
#
# Track frame offsets: 
#        150
#        18817
#        36092
#        52968
#        72536
#        85940
#        112672
#        131874
#        147241
#        170907
#        187165
#        209791
#        232298
#        253086
#
# Disc length: 3629 seconds
#
# Revision: 0
# Processed by: cddbd v1.5.2PL0 Copyright (c) Steve Scherf et al.
# Submitted via: ExactAudioCopy v0.95a5
#
DISCID=d80e2b0e
DTITLE=The Police - The Police - Disco 2
DYEAR=2007
DGENRE=Rock
TTITLE0=De do do do, de da da da
TTITLE1=Voices inside my head
TTITLE2=Invisible sun
TTITLE3=Every little thing she does is magic
TTITLE4=Spirits in the material world
TTITLE5=Demolition man
TTITLE6=Every breath you take
TTITLE7=Synchronicity I
TTITLE8=Wrapped around your finger
TTITLE9=Walking in your footsteps
TTITLE10=Synchronicity II
TTITLE11=King of pain
TTITLE12=Murder by numbers
TTITLE13=Tea in the Sahara
EXTD=
EXTT0=
EXTT1=
EXTT2=
EXTT3=
EXTT4=
EXTT5=
EXTT6=
EXTT7=
EXTT8=
EXTT9=
EXTT10=
EXTT11=
EXTT12=
EXTT13=
PLAYORDER=
